<?xml version="1.0" encoding="utf-8"?>
<!-- Designed by Vexels.com - 2016 All Rights Reserved - https://vexels.com/terms-and-conditions/  -->

<svg version="1.0" id="Capa_1" xmlns="http://www.w3.org/2000/svg" xmlns:xlink="http://www.w3.org/1999/xlink" x="0px" y="0px"
	 width="1200px" height="1200px" viewBox="0 0 1200 1200" enable-background="new 0 0 1200 1200" xml:space="preserve">
<g>
	<path d="M885.828,702.591c-13.141-24.267-46.594-25.732-72.599-17.26c-9.241,38.221-22.389,85.747-39.125,129.514
		c32.01-7.038,63.164-24.64,87.305-45.318C882.351,751.591,900.498,729.685,885.828,702.591z"/>
	<path d="M600.083,1196.796c329.061,0,596.712-267.815,596.712-596.876c0-329.063-267.651-596.716-596.712-596.716
		S3.205,270.857,3.205,599.92C3.205,928.981,271.022,1196.796,600.083,1196.796z M451.662,240.695
		c2.492,6.561,5.73,12.526,9.467,18.094c37.187,42.677,103.6,51.155,132.296,104.493c12.335,22.929,16.447,50.155,11.676,75.791
		c-5.231,28.126-61.251,95.025-30.472,118.026c13.392,10.004,0.291,32.78-13.246,22.663
		c-70.689-52.818,17.604-99.795,19.377-159.161c0.989-33.059-13.909-54.873-35.047-72.503c3.552,6.881,6.357,14.346,7.963,22.747
		c4.072,21.328,1.087,44.639-8.671,64.057c-11.724,23.335-65.474,53.092-40.067,82.972c10.884,12.804-7.605,31.446-18.562,18.559
		c-48.191-56.676,23.469-74.713,39.296-123.278c18.837-57.794-36.563-89.099-73.524-127.834
		c-9.581-8.168-18.106-17.183-24.474-27.866c-2.117-3.552-2.317-7.008-1.36-10.015C420.665,231.788,445.754,225.143,451.662,240.695
		z M281.234,610.754h547.949c0,0-3.285,18.719-9.592,47.15c52.825-8.273,116.538,15.272,96.592,80.288
		c-17.593,57.361-95.646,98.134-153.817,105.201c-15.577,35.189-33.669,65.518-54.133,82.755
		c-42.416,35.695-47.245,28.873-47.245,28.873c-60.373,18.582-172.922,16.062-239.17,0c0,0,0,0-47.246-49.872
		C327.222,855.174,272.1,765.825,281.234,610.754z"/>
</g>
</svg>
