<?xml version="1.0" encoding="iso-8859-1"?>
<!-- Uploaded to: SVG Repo, www.svgrepo.com, Generator: SVG Repo Mixer Tools -->
<svg fill="#000000" height="800px" width="800px" version="1.1" id="Layer_1" xmlns="http://www.w3.org/2000/svg" xmlns:xlink="http://www.w3.org/1999/xlink" 
	 viewBox="0 0 511.999 511.999" xml:space="preserve">
<g transform="translate(0 -1)">
	<g>
		<g>
			<path d="M264.531,171.662v59.733h67.439c4.241-19.746,8.055-44.356,9.267-59.733H264.531z"/>
			<path d="M335.485,264.455c-4.335-4.326-6.69-10.035-6.758-15.991h-145.46c-0.068,5.956-2.423,11.665-6.758,15.991
				c-0.333,0.333-0.725,0.734-1.067,1.075h161.101C336.202,265.189,335.818,264.788,335.485,264.455z"/>
			<path d="M247.465,231.396v-59.733h-76.706c1.212,15.377,5.026,39.987,9.267,59.733H247.465z"/>
			<path d="M355.069,154.597c50.082-48.239,41.37-76.339,40.073-79.65c-0.111-0.29-0.239-0.563-0.384-0.836
				c-2.338-4.471-5.837-8.542-10.402-12.083c-11.81-9.165-24.96-12.279-38.187-13.867l-6.426,8.994
				c-0.324,0.452-0.683,0.862-1.075,1.246c-19.533,18.483-36.813,61.551-39.373,96.196H355.069z"/>
			<path d="M156.928,154.596h55.774c-2.56-34.645-19.84-77.713-39.373-96.196c-0.461-0.444-0.879-0.939-1.229-1.468l-5.88-8.815
				c-13.363,1.579-26.65,4.659-38.579,13.909c-4.565,3.541-8.073,7.612-10.411,12.083c-0.137,0.273-0.265,0.546-0.375,0.836
				C115.559,78.257,106.846,106.357,156.928,154.596z"/>
			<path d="M229.787,154.6h52.42c2.466-35.439,19.533-84.207,44.109-108.015l0.196-0.265c-5.743-0.529-11.341-1.152-16.64-2.364
				c-6.886-1.587-18.62-6.05-19.763-17.929c-0.094-2.057,0.026-16.427,0.026-16.435c0.008-2.27-0.879-4.463-2.483-6.076
				C286.047,1.905,283.871,1,281.601,1h-51.2c-2.278,0-4.454,0.904-6.059,2.517c-1.604,1.613-2.492,3.806-2.475,6.076
				c0,0.009,0.111,14.379,0.034,16.188c-1.161,12.126-12.894,16.589-19.78,18.176c-5.282,1.212-10.863,1.826-16.589,2.355
				l0.247,0.375C210.305,70.53,227.321,119.212,229.787,154.6z"/>
			<path d="M452.177,469.121c-6.912-48.35-25.694-94.182-54.315-132.531c-16.051-21.504-31.727-39.689-44.962-53.99H159.091
				c-13.227,14.302-28.911,32.486-44.954,53.99c-28.629,38.349-47.411,84.181-54.315,132.531c-0.41,2.85,0.648,5.717,2.816,7.62
				c9.02,7.919,37.547,19.183,52.224,19.183c28.791,0,44.774-4.122,54.144-7.279c8.73,7.706,30.208,24.354,52.856,24.354
				c17.758,0,28.177-3.294,34.133-6.571c5.965,3.277,16.375,6.571,34.133,6.571c22.639,0,44.117-16.64,52.855-24.346
				c8.951,3.046,24.977,7.27,54.153,7.27c14.669,0,43.204-11.264,52.224-19.183C451.528,474.838,452.586,471.971,452.177,469.121z"
				/>
		</g>
	</g>
</g>
</svg>