<?xml version="1.0" encoding="iso-8859-1"?>
<!-- Uploaded to: SVG Repo, www.svgrepo.com, Generator: SVG Repo Mixer Tools -->
<svg fill="#000000" height="800px" width="800px" version="1.1" id="Capa_1" xmlns="http://www.w3.org/2000/svg" xmlns:xlink="http://www.w3.org/1999/xlink" 
	 viewBox="0 0 463 463" xml:space="preserve">
<g>
	<path d="M319,132.755c0-10.551-4.109-20.471-11.569-27.931L278.176,75.57C273.549,70.941,271,64.789,271,58.245v-5.19
		c4.765-2.647,8-7.728,8-13.555v-24C279,6.953,272.047,0,263.5,0h-64C190.953,0,184,6.953,184,15.5v24
		c0,5.827,3.235,10.908,8,13.555v5.19c0,6.544-2.548,12.697-7.176,17.324l-29.255,29.255c-7.46,7.461-11.569,17.38-11.569,27.931
		V279.5c0,6.177,2.399,11.801,6.31,16c-3.911,4.199-6.31,9.823-6.31,16s2.399,11.801,6.31,16c-3.911,4.199-6.31,9.823-6.31,16
		s2.399,11.801,6.31,16c-3.911,4.199-6.31,9.823-6.31,16s2.399,11.801,6.31,16c-3.911,4.199-6.31,9.823-6.31,16v16
		c0,21.78,17.72,39.5,39.5,39.5h96c21.78,0,39.5-17.72,39.5-39.5v-16c0-6.177-2.399-11.801-6.31-16c3.911-4.199,6.31-9.823,6.31-16
		s-2.399-11.801-6.31-16c3.911-4.199,6.31-9.823,6.31-16s-2.399-11.801-6.31-16c3.911-4.199,6.31-9.823,6.31-16
		s-2.399-11.801-6.31-16c3.911-4.199,6.31-9.823,6.31-16V132.755z M199,15.5c0-0.275,0.224-0.5,0.5-0.5h64
		c0.276,0,0.5,0.225,0.5,0.5v24c0,0.275-0.224,0.5-0.5,0.5h-64c-0.276,0-0.5-0.225-0.5-0.5V15.5z M159,132.755
		c0-6.544,2.548-12.696,7.176-17.323l29.255-29.256C202.891,78.715,207,68.796,207,58.245V55h49v3.245
		c0,10.55,4.108,20.47,11.569,27.932l29.255,29.255c4.627,4.627,7.176,10.779,7.176,17.323V279.5c0,4.687-3.813,8.5-8.5,8.5h-128
		c-4.687,0-8.5-3.813-8.5-8.5V132.755z M304,311.5c0,4.687-3.813,8.5-8.5,8.5h-128c-4.687,0-8.5-3.813-8.5-8.5s3.813-8.5,8.5-8.5
		h128C300.187,303,304,306.813,304,311.5z M304,343.5c0,4.687-3.813,8.5-8.5,8.5h-128c-4.687,0-8.5-3.813-8.5-8.5s3.813-8.5,8.5-8.5
		h128C300.187,335,304,338.813,304,343.5z M304,375.5c0,4.687-3.813,8.5-8.5,8.5h-128c-4.687,0-8.5-3.813-8.5-8.5s3.813-8.5,8.5-8.5
		h128C300.187,367,304,370.813,304,375.5z M304,423.5c0,13.51-10.991,24.5-24.5,24.5h-96c-13.509,0-24.5-10.99-24.5-24.5v-16
		c0-4.687,3.813-8.5,8.5-8.5h128c4.687,0,8.5,3.813,8.5,8.5V423.5z"/>
	<path d="M231.5,255c21.78,0,39.5-17.72,39.5-39.5c0-19.047-27.764-60.205-33.329-68.263c-1.4-2.027-3.707-3.237-6.171-3.237
		s-4.771,1.21-6.171,3.237C219.764,155.295,192,196.453,192,215.5C192,237.28,209.72,255,231.5,255z M221.941,180.717
		c3.388-5.846,6.802-11.322,9.579-15.646C243.179,183.214,256,206.558,256,215.5c0,13.51-10.991,24.5-24.5,24.5
		S207,229.01,207,215.5C207,212.791,208.456,203.978,221.941,180.717z"/>
</g>
</svg>